<svg xmlns="http://www.w3.org/2000/svg" viewBox="0 0 272.81 272.81"><defs><style>.cls-1{fill:#fff;}</style></defs><g id="Layer_2" data-name="Layer 2"><g id="Layer_2-2" data-name="Layer 2"><path class="cls-1" d="M136,128.06A44.56,44.56,0,1,1,180.54,83.5,44.61,44.61,0,0,1,136,128.06Zm0-70.12A25.56,25.56,0,1,0,161.54,83.5,25.59,25.59,0,0,0,136,57.94Z"/><path class="cls-1" d="M136.41,0C61.19,0,0,61.19,0,136.4S61.19,272.81,136.41,272.81s136.4-61.19,136.4-136.41S211.62,0,136.41,0Zm-97,193.21A112.39,112.39,0,1,1,248.81,136.4a111.68,111.68,0,0,1-15.74,57.32c-24.36-26.58-61.79-43.5-97-43.5S63.49,166.94,39.45,193.21Zm97,55.6a112,112,0,0,1-82.29-35.92c19.42-23.49,51.58-38.67,81.95-38.67,29.74,0,62.77,15.7,82.25,39.08A112.07,112.07,0,0,1,136.41,248.81Z"/></g></g></svg>