<svg xmlns="http://www.w3.org/2000/svg" width="24" height="24" viewBox="0 0 24 24">
  <g id="Group_1150" data-name="Group 1150" transform="translate(592 -1507)">
    <g id="Group_1146" data-name="Group 1146" transform="translate(-592 1507)">
      <rect id="Rectangle_396" data-name="Rectangle 396" width="24" height="24" fill="none"/>
    </g>
    <path id="Path_1533" data-name="Path 1533" d="M490.629,747.243a10.038,10.038,0,0,1,9.92,10,10,10,0,1,1-20-.042A9.98,9.98,0,0,1,490.629,747.243Zm-.194,11.933c-.173-.188-.452-.51-.751-.812-1.706-1.726-3.411-3.453-5.135-5.16a2.736,2.736,0,0,0-.768-.379,2.53,2.53,0,0,0-.25.744c-.011,2.373-.074,4.751.046,7.118a3.068,3.068,0,0,0,2.033,2.738c1.024.419,1.28.245,1.3-.845.013-.785,0-1.571,0-2.357l.267-.1q1.36,1.342,2.72,2.683c.711.7.924.673,1.648-.05.969-.968,1.971-1.9,2.958-2.853,0,.432-.006.92,0,1.407.008.524.056,1.048.037,1.571-.03.814.378.854,1,.643a3.332,3.332,0,0,0,2.248-3.173q.052-2.961,0-5.924a9.42,9.42,0,0,0-.307-1.621,11.419,11.419,0,0,0-1.3.924C494.293,755.485,492.435,757.272,490.435,759.176Z" transform="translate(-1070.549 761.76)" fill="#dfdfdf"/>
  </g>
</svg>
