<svg xmlns="http://www.w3.org/2000/svg" xmlns:xlink="http://www.w3.org/1999/xlink" width="192" height="72" viewBox="0 0 192 72">
  <defs>
    <radialGradient id="radial-gradient" cx="0.5" cy="0.5" r="0.502" gradientTransform="translate(0.003) scale(0.994 1)" gradientUnits="objectBoundingBox">
      <stop offset="0" stop-color="#fff"/>
      <stop offset="0.003" stop-color="#fefefd"/>
      <stop offset="0.153" stop-color="#f2e5c6"/>
      <stop offset="0.303" stop-color="#e7d096"/>
      <stop offset="0.451" stop-color="#dfbf6e"/>
      <stop offset="0.597" stop-color="#d8b250"/>
      <stop offset="0.738" stop-color="#d3a83a"/>
      <stop offset="0.875" stop-color="#d0a22d"/>
      <stop offset="1" stop-color="#d0a129"/>
    </radialGradient>
  </defs>
  <g id="Group_1127" data-name="Group 1127" transform="translate(-86 -251.641)">
    <g id="Group_1126" data-name="Group 1126">
      <path id="Path_1" data-name="Path 1" d="M223.731,774.81c2.545-.316,4.69-.448,6.78-.868,6.039-1.216,12.043-2.616,18.085-3.818,5.43-1.08,10.888-1.463,16.314.133a3.365,3.365,0,0,0,.681.059l.128-.47a48.494,48.494,0,0,0-5.466-1.641c-4.985-.9-9.892-.045-14.772,1-5.647,1.209-11.223,2.884-17.064,2.848a17.477,17.477,0,0,1-11.314-3.894c-.438-.358-.847-.752-1.39-1.237.335-.132.5-.261.654-.249,6.743.536,13.323-.779,19.932-1.785,5.155-.784,10.328-1.516,15.552-1.044,2.541.23,5.053.786,7.674,1.005-1.629-.611-3.223-1.35-4.893-1.808-4.8-1.316-9.649-1-14.506-.266-4.77.717-9.537,1.495-14.331,1.991-5.67.587-11.07-.264-15.688-4.079-.579-.478-1.207-.894-1.812-1.338l.358-.558c1.4-.088,2.8-.18,4.205-.262,10.159-.589,20.312-1.519,30.5-1.017,8.606.424,17.015,1.883,24.615,6.361,2.42,1.426,4.646,3.2,7.134,4.931a7.824,7.824,0,0,0-.576-.859,34.161,34.161,0,0,0-20.153-10.8c-10.867-1.843-21.784-1.767-32.725-.939-4.978.377-9.969.54-14.7-1.427a33.308,33.308,0,0,1-4.917-2.925,7.149,7.149,0,0,1-1.158-1.327c2.283-.232,4.254-.452,6.228-.631,13.268-1.2,26.558.056,39.828-.385,5.139-.171,10.274-.825,15.38-1.5,2.246-.3,4.4-1.266,6.621-1.832a11.458,11.458,0,0,1,7.051.266,5.521,5.521,0,0,1,3.755,5.237,21.91,21.91,0,0,1-.262,3.779,22.991,22.991,0,0,0,3.543,17.267c4.085,6.075,14,10.037,22.44,4.834,6.761-4.166,10.079-13.633,8.828-20.923a21.4,21.4,0,0,1-.386-6.233c.145-1.125,1.335-2.3,2.336-3.08,2.522-1.958,5.47-1.823,8.38-1.153,2.742.632,5.413,1.682,8.18,2.087a104.124,104.124,0,0,0,13.1,1.235c7.352.137,14.714-.269,22.067-.145,7.3.123,14.6.617,21.892.951.849.039,1.7.091,3.014.161-.779.806-1.241,1.386-1.8,1.846a18.482,18.482,0,0,1-10.619,3.926,64.124,64.124,0,0,1-9.014-.1c-11.281-.709-22.542-.891-33.7,1.307A33.722,33.722,0,0,0,318.906,768.1a.793.793,0,0,0-.184.648,7.411,7.411,0,0,0,.837-.554,42.225,42.225,0,0,1,20.492-9.482c9.63-1.8,19.3-1.45,29-.845,5.055.316,10.114.55,15.17.829a9.988,9.988,0,0,1,1.091.214,17.132,17.132,0,0,1-5.4,4.075,18.383,18.383,0,0,1-9.757,1.87c-4.515-.364-9.01-1.018-13.5-1.65-5.876-.827-11.748-1.806-17.631-.178a24.089,24.089,0,0,0-4.805,1.994,40.466,40.466,0,0,1,15.491-1.083c4.749.476,9.452,1.428,14.2,1.914,4.358.446,8.749.551,13.125.807.185.011.369.03.765.062a5.933,5.933,0,0,1-.608.828,17.208,17.208,0,0,1-11.239,4.483c-4.881.224-9.576-.994-14.287-2.034-5.929-1.309-11.847-2.856-17.981-1.843a51.31,51.31,0,0,0-5.8,1.644l.132.486c1.474-.272,2.939-.6,4.422-.8,5.29-.718,10.486.089,15.643,1.179,6.958,1.47,13.779,3.678,20.956,3.942a2.719,2.719,0,0,1,.676.291,14.806,14.806,0,0,1-7.468,3.688c-4.385.8-8.653-.025-12.892-1.1-4.585-1.167-9.132-2.538-13.766-3.442-4.5-.877-9.044-.865-13.319,1.3a.85.85,0,0,0-.193.138c2.567-.187,5.253-.757,7.853-.484a79.337,79.337,0,0,1,11.935,2.223c6.127,1.617,12.081,3.923,18.535,4.913a12.382,12.382,0,0,1-1.373.794c-3.839,1.627-7.8,1.271-11.715.515-4.031-.778-8.009-1.834-12.022-2.711-4.306-.94-8.644-1.781-13.064-1.024a50.865,50.865,0,0,0-5.18,1.436l.082.442c.272-.042.546-.073.816-.129a35.205,35.205,0,0,1,16.179.8c5.132,1.337,10.223,2.84,15.331,4.278.258.073.5.209,1.148.486a25.3,25.3,0,0,1-7.286,1.448c-5.7.316-11.193-1.045-16.726-2.135-4.126-.813-8.314-1.808-12.445-.245a40.544,40.544,0,0,0-5.975,3.129,1.84,1.84,0,0,1-2.6-.208c-5.42-4.788-12.42-5.629-17.956.171a1.2,1.2,0,0,1-1.86.186c-6.275-4.917-13.181-4.483-20.365-2.732-4.965,1.209-10.015,2.226-15.173,1.812-2.3-.185-4.575-.709-6.861-1.079l-.018-.442c.128-.095.244-.239.387-.277,6.185-1.661,12.357-3.374,18.564-4.943a30.924,30.924,0,0,1,14.188-.093l.113-.4a44.373,44.373,0,0,0-5.091-1.491c-4.465-.769-8.844.1-13.209,1-5.235,1.085-10.461,2.22-15.718,3.181a14.728,14.728,0,0,1-8.021-.977,17.456,17.456,0,0,1-1.634-.874c2.59-.531,4.83-.87,7-1.459,4.334-1.174,8.633-2.483,12.946-3.741,6.088-1.776,12.224-2.734,18.513-1.155.074.019.169-.049.381-.117a17.366,17.366,0,0,0-8.873-2c-4.4,0-8.576,1.251-12.8,2.292-4.537,1.117-9.1,2.225-13.707,2.916a14.913,14.913,0,0,1-11.154-2.8C224.809,775.678,224.417,775.348,223.731,774.81Z" transform="translate(-114.878 -494.076)" fill="#fff"/>
      <path id="Path_2" data-name="Path 2" d="M495.669,747.244c7.952-.141,14.955,6.848,14.88,15a15,15,0,1,1-30-.064A14.971,14.971,0,0,1,495.669,747.244Zm-.292,17.9c-.259-.281-.678-.765-1.127-1.218-2.559-2.589-5.116-5.18-7.7-7.74a4.106,4.106,0,0,0-1.152-.569,3.793,3.793,0,0,0-.375,1.116c-.017,3.56-.111,7.126.069,10.678a4.6,4.6,0,0,0,3.05,4.107c1.536.629,1.92.368,1.947-1.267.02-1.178,0-2.357,0-3.535l.4-.156q2.04,2.013,4.08,4.024c1.066,1.05,1.386,1.009,2.472-.076,1.454-1.452,2.956-2.856,4.437-4.279,0,.648-.009,1.379,0,2.111.012.786.084,1.572.055,2.356-.045,1.222.567,1.28,1.494.964A5,5,0,0,0,506.4,766.9q.078-4.442,0-8.886a14.12,14.12,0,0,0-.461-2.431,17.121,17.121,0,0,0-1.956,1.386C501.165,759.608,498.378,762.288,495.378,765.144Z" transform="translate(-313.549 -493.139)" fill="url(#radial-gradient)"/>
    </g>
    <g id="Group_1125" data-name="Group 1125" transform="translate(-0.456 -7.962)">
      <path id="Path_3" data-name="Path 3" d="M672.917,955.944c0-3.461.023-6.922-.014-10.383-.011-1.053.336-1.539,1.547-1.5,2.076.067,4.158-.029,6.236.024a6.825,6.825,0,1,1,.075,13.649c-4.055-.116-4.145,1.373-4.207,4.1-.019.852.67,2.237-1.31,2.126a2.281,2.281,0,0,1-2.392-2.419c0-1.865,0-3.729,0-5.594Zm3.669-5.061c-.07,4.243-.019,3.183,3.655,3.448a2.076,2.076,0,0,0,.422-.031,3.6,3.6,0,0,0,3.187-2.488,2.874,2.874,0,0,0-1.182-3.447,6.4,6.4,0,0,0-2.877-.887c-3.168-.264-3.272-.12-3.206,2.873C676.589,950.529,676.586,950.706,676.586,950.883Z" transform="translate(-452.454 -632.407)" fill="#fff"/>
      <path id="Path_4" data-name="Path 4" d="M262.65,946.714l9.516,13.581,9.576-13.656.288.1a9.656,9.656,0,0,1,.1.985c0,4.823.006,9.645-.015,14.468-.008,1.821-.809,2.733-2.718,2.961V955.44l-.511-.176-6.715,9.548-6.705-9.545-.486.122q0,1.018,0,2.035c0,2.256.026,4.513,0,6.769-.012,1.038-.571,1.345-1.375.67a3.184,3.184,0,0,1-1.246-1.94c-.1-5.262-.047-10.527-.035-15.79C262.321,947.066,262.422,947,262.65,946.714Z" transform="translate(-159.842 -634.254)" fill="#fff"/>
      <path id="Path_5" data-name="Path 5" d="M712.5,964.127l9.243-19.525,9.307,19.516c-2.8.584-3.638.292-4.7-1.752A2.131,2.131,0,0,0,724,961.114c-1.6.1-3.21.079-4.813.035a1.961,1.961,0,0,0-1.985,1.174C716.043,964.468,715.388,964.707,712.5,964.127Zm9.161-5.9v.053c.236,0,.471.006.706,0,1.607-.051,1.825-.384,1.157-1.78-.367-.767-.719-1.542-1.133-2.287-.135-.243-.494-.6-.659-.556a1.317,1.317,0,0,0-.768.626c-.444.875-.78,1.8-1.206,2.68-.386.8-.093,1.182.773,1.259C720.9,958.253,721.282,958.226,721.659,958.226Z" transform="translate(-480.506 -632.796)" fill="#fff"/>
      <path id="Path_6" data-name="Path 6" d="M407.155,957.792l4.346,6.442c-1.865.706-2.97.423-3.982-.985-1.055-1.468-2.07-2.961-3.118-4.433a2.95,2.95,0,0,0-3.127-.722,1.412,1.412,0,0,0-.4,1.027c-.044,1.415.012,2.834-.041,4.249-.014.385-.217,1.037-.447,1.084a1.781,1.781,0,0,1-1.413-.306,2.882,2.882,0,0,1-.839-1.722c-.068-5.179-.037-10.359-.062-15.538,0-.821.267-1.233,1.213-1.209,2.029.051,4.07-.06,6.088.1a6.276,6.276,0,0,1,5.588,3.72,5.616,5.616,0,0,1-1.122,6.447A14.791,14.791,0,0,1,407.155,957.792Zm-6.3-6.01h.01a24.812,24.812,0,0,0,.037,2.776c.036.317.479.83.763.846a16.769,16.769,0,0,0,3.935-.058,3.364,3.364,0,0,0,2.847-2.783c.507-2.628-1.2-4.334-4.5-4.407-3.817-.083-3-.2-3.089,2.7C400.849,951.164,400.857,951.473,400.857,951.782Z" transform="translate(-256.618 -633.567)" fill="#fff"/>
      <path id="Path_7" data-name="Path 7" d="M501.885,964.447c-1.92-.353-2.586-1.088-2.6-2.821-.031-3.717-.012-7.435-.012-11.152,0-1.151.051-2.3-.016-3.451-.059-1.006.273-1.425,1.428-1.419,1.138.006,1.329.492,1.309,1.39-.043,1.9.012,3.806-.024,5.708-.015.794.3,1.116,1.156,1.107q3.4-.037,6.8.008c.869.013,1.158-.324,1.143-1.111-.037-1.947.018-3.895-.028-5.841-.021-.914.34-1.259,1.322-1.255.948,0,1.352.269,1.345,1.22-.037,5-.012,10-.036,15a2.15,2.15,0,0,1-.339,1.384,8.923,8.923,0,0,1-1.759,1.169,6.388,6.388,0,0,1-.495-1.6c-.064-1.768-.05-3.54-.014-5.309.018-.837-.292-1.2-1.227-1.187q-3.329.055-6.658,0c-.955-.018-1.222.373-1.208,1.2.033,1.814.007,3.628-.006,5.443C501.962,963.389,501.917,963.859,501.885,964.447Z" transform="translate(-328.725 -633.514)" fill="#fff"/>
      <path id="Path_8" data-name="Path 8" d="M778.423,943.931c-1.189,2.118-2.207,3.95-3.245,5.773-.955,1.678-1.971,3.328-2.876,5.029a4.086,4.086,0,0,0-.4,1.785c-.047,2.04-.065,4.084,0,6.123.036,1.108-.555,1.278-1.495,1.147a2.387,2.387,0,0,1-2.09-2.337c-.058-1.507.086-3.029-.085-4.521a9.964,9.964,0,0,0-.976-3.512c-1.558-2.928-3.3-5.768-4.965-8.646a6.308,6.308,0,0,1-.3-.812c1.206,0,2.275-.066,3.326.036a1.63,1.63,0,0,1,1,.763c1.046,1.734,2.017,3.509,3.044,5.253.166.282.537.708.73.672a1.53,1.53,0,0,0,.915-.679,42.492,42.492,0,0,0,2.359-4.377,2.49,2.49,0,0,1,2.915-1.709A20.277,20.277,0,0,0,778.423,943.931Z" transform="translate(-515.968 -632.283)" fill="#fff"/>
      <path id="Path_9" data-name="Path 9" d="M562.374,946.405l8.244,18.322c-1.851.457-2.894.074-3.471-1.406a2.1,2.1,0,0,0-2.452-1.442c-1.834.092-3.68.069-5.517.01a1.755,1.755,0,0,0-1.925,1.156c-.781,1.715-1.854,2.177-3.67,1.659l8.315-18.28Zm-.021,6.321-.463.018-2.963,6.912h6.393Z" transform="translate(-367.43 -634.088)" fill="#fff"/>
      <path id="Path_10" data-name="Path 10" d="M351.972,965.137c-1.826.532-2.773.242-3.452-1.282a2.354,2.354,0,0,0-2.686-1.54,42.034,42.034,0,0,1-5.091.005,2.068,2.068,0,0,0-2.268,1.328c-.785,1.608-1.692,1.974-3.568,1.5l8.305-18.273.453,0Zm-8.3-11.991-.465.017-2.955,6.979h6.38Z" transform="translate(-211.861 -634.425)" fill="#fff"/>
      <path id="Path_11" data-name="Path 11" d="M450.824,960.554a3.654,3.654,0,0,1,3.534.564,3.515,3.515,0,0,0,4.522-.227,2.261,2.261,0,0,0-.2-3.851,14.228,14.228,0,0,0-3.092-1.258c-3.787-1.179-5.5-3.68-4.583-6.8a5.75,5.75,0,0,1,5.657-3.837,5.319,5.319,0,0,1,5.2,3.791c-1.236.713-2.268.315-3.315-.448a3.023,3.023,0,0,0-4.732.94,2.348,2.348,0,0,0,1.326,3.424c1.265.583,2.636.963,3.914,1.525,2.569,1.13,3.909,3.2,3.552,5.343-.4,2.42-2.555,4.255-5.472,4.666a6.449,6.449,0,0,1-6.109-3.075A4.538,4.538,0,0,1,450.824,960.554Z" transform="translate(-294.181 -633.186)" fill="#fff"/>
      <path id="Path_12" data-name="Path 12" d="M631.591,962.11c-.054,1.535-.8,2.368-2.219,2.4q-4.037.1-8.078-.007a1.351,1.351,0,0,1-.939-.93c-.057-5.624-.026-11.249-.05-16.873,0-.972.577-1.021,1.367-1.057.98-.045,1.337.294,1.33,1.222-.032,4.385-.012,8.769-.01,13.153,0,1.963.135,2.086,2.268,2.087Z" transform="translate(-415.033 -633.543)" fill="#fff"/>
    </g>
  </g>
</svg>
