<svg xmlns="http://www.w3.org/2000/svg" xmlns:xlink="http://www.w3.org/1999/xlink" width="192" height="44" viewBox="0 0 192 44">
  <defs>
    <radialGradient id="radial-gradient" cx="0.5" cy="0.5" r="0.502" gradientTransform="translate(0.003) scale(0.994 1)" gradientUnits="objectBoundingBox">
      <stop offset="0" stop-color="#fff"/>
      <stop offset="0.003" stop-color="#fefefd"/>
      <stop offset="0.153" stop-color="#f2e5c6"/>
      <stop offset="0.303" stop-color="#e7d096"/>
      <stop offset="0.451" stop-color="#dfbf6e"/>
      <stop offset="0.597" stop-color="#d8b250"/>
      <stop offset="0.738" stop-color="#d3a83a"/>
      <stop offset="0.875" stop-color="#d0a22d"/>
      <stop offset="1" stop-color="#d0a129"/>
    </radialGradient>
  </defs>
  <g id="Group_1126" data-name="Group 1126" transform="translate(-86 -251.641)">
    <path id="Path_1" data-name="Path 1" d="M223.731,774.81c2.545-.316,4.69-.448,6.78-.868,6.039-1.216,12.043-2.616,18.085-3.818,5.43-1.08,10.888-1.463,16.314.133a3.365,3.365,0,0,0,.681.059l.128-.47a48.494,48.494,0,0,0-5.466-1.641c-4.985-.9-9.892-.045-14.772,1-5.647,1.209-11.223,2.884-17.064,2.848a17.477,17.477,0,0,1-11.314-3.894c-.438-.358-.847-.752-1.39-1.237.335-.132.5-.261.654-.249,6.743.536,13.323-.779,19.932-1.785,5.155-.784,10.328-1.516,15.552-1.044,2.541.23,5.053.786,7.674,1.005-1.629-.611-3.223-1.35-4.893-1.808-4.8-1.316-9.649-1-14.506-.266-4.77.717-9.537,1.495-14.331,1.991-5.67.587-11.07-.264-15.688-4.079-.579-.478-1.207-.894-1.812-1.338l.358-.558c1.4-.088,2.8-.18,4.205-.262,10.159-.589,20.312-1.519,30.5-1.017,8.606.424,17.015,1.883,24.615,6.361,2.42,1.426,4.646,3.2,7.134,4.931a7.824,7.824,0,0,0-.576-.859,34.161,34.161,0,0,0-20.153-10.8c-10.867-1.843-21.784-1.767-32.725-.939-4.978.377-9.969.54-14.7-1.427a33.308,33.308,0,0,1-4.917-2.925,7.149,7.149,0,0,1-1.158-1.327c2.283-.232,4.254-.452,6.228-.631,13.268-1.2,26.558.056,39.828-.385,5.139-.171,10.274-.825,15.38-1.5,2.246-.3,4.4-1.266,6.621-1.832a11.458,11.458,0,0,1,7.051.266,5.521,5.521,0,0,1,3.755,5.237,21.91,21.91,0,0,1-.262,3.779,22.991,22.991,0,0,0,3.543,17.267c4.085,6.075,14,10.037,22.44,4.834,6.761-4.166,10.079-13.633,8.828-20.923a21.4,21.4,0,0,1-.386-6.233c.145-1.125,1.335-2.3,2.336-3.08,2.522-1.958,5.47-1.823,8.38-1.153,2.742.632,5.413,1.682,8.18,2.087a104.124,104.124,0,0,0,13.1,1.235c7.352.137,14.714-.269,22.067-.145,7.3.123,14.6.617,21.892.951.849.039,1.7.091,3.014.161-.779.806-1.241,1.386-1.8,1.846a18.482,18.482,0,0,1-10.619,3.926,64.124,64.124,0,0,1-9.014-.1c-11.281-.709-22.542-.891-33.7,1.307A33.722,33.722,0,0,0,318.906,768.1a.793.793,0,0,0-.184.648,7.411,7.411,0,0,0,.837-.554,42.225,42.225,0,0,1,20.492-9.482c9.63-1.8,19.3-1.45,29-.845,5.055.316,10.114.55,15.17.829a9.988,9.988,0,0,1,1.091.214,17.132,17.132,0,0,1-5.4,4.075,18.383,18.383,0,0,1-9.757,1.87c-4.515-.364-9.01-1.018-13.5-1.65-5.876-.827-11.748-1.806-17.631-.178a24.089,24.089,0,0,0-4.805,1.994,40.466,40.466,0,0,1,15.491-1.083c4.749.476,9.452,1.428,14.2,1.914,4.358.446,8.749.551,13.125.807.185.011.369.03.765.062a5.933,5.933,0,0,1-.608.828,17.208,17.208,0,0,1-11.239,4.483c-4.881.224-9.576-.994-14.287-2.034-5.929-1.309-11.847-2.856-17.981-1.843a51.31,51.31,0,0,0-5.8,1.644l.132.486c1.474-.272,2.939-.6,4.422-.8,5.29-.718,10.486.089,15.643,1.179,6.958,1.47,13.779,3.678,20.956,3.942a2.719,2.719,0,0,1,.676.291,14.806,14.806,0,0,1-7.468,3.688c-4.385.8-8.653-.025-12.892-1.1-4.585-1.167-9.132-2.538-13.766-3.442-4.5-.877-9.044-.865-13.319,1.3a.85.85,0,0,0-.193.138c2.567-.187,5.253-.757,7.853-.484a79.337,79.337,0,0,1,11.935,2.223c6.127,1.617,12.081,3.923,18.535,4.913a12.382,12.382,0,0,1-1.373.794c-3.839,1.627-7.8,1.271-11.715.515-4.031-.778-8.009-1.834-12.022-2.711-4.306-.94-8.644-1.781-13.064-1.024a50.865,50.865,0,0,0-5.18,1.436l.082.442c.272-.042.546-.073.816-.129a35.205,35.205,0,0,1,16.179.8c5.132,1.337,10.223,2.84,15.331,4.278.258.073.5.209,1.148.486a25.3,25.3,0,0,1-7.286,1.448c-5.7.316-11.193-1.045-16.726-2.135-4.126-.813-8.314-1.808-12.445-.245a40.544,40.544,0,0,0-5.975,3.129,1.84,1.84,0,0,1-2.6-.208c-5.42-4.788-12.42-5.629-17.956.171a1.2,1.2,0,0,1-1.86.186c-6.275-4.917-13.181-4.483-20.365-2.732-4.965,1.209-10.015,2.226-15.173,1.812-2.3-.185-4.575-.709-6.861-1.079l-.018-.442c.128-.095.244-.239.387-.277,6.185-1.661,12.357-3.374,18.564-4.943a30.924,30.924,0,0,1,14.188-.093l.113-.4a44.373,44.373,0,0,0-5.091-1.491c-4.465-.769-8.844.1-13.209,1-5.235,1.085-10.461,2.22-15.718,3.181a14.728,14.728,0,0,1-8.021-.977,17.456,17.456,0,0,1-1.634-.874c2.59-.531,4.83-.87,7-1.459,4.334-1.174,8.633-2.483,12.946-3.741,6.088-1.776,12.224-2.734,18.513-1.155.074.019.169-.049.381-.117a17.366,17.366,0,0,0-8.873-2c-4.4,0-8.576,1.251-12.8,2.292-4.537,1.117-9.1,2.225-13.707,2.916a14.913,14.913,0,0,1-11.154-2.8C224.809,775.678,224.417,775.348,223.731,774.81Z" transform="translate(-114.878 -494.076)" fill="#fff"/>
    <path id="Path_2" data-name="Path 2" d="M495.669,747.244c7.952-.141,14.955,6.848,14.88,15a15,15,0,1,1-30-.064A14.971,14.971,0,0,1,495.669,747.244Zm-.292,17.9c-.259-.281-.678-.765-1.127-1.218-2.559-2.589-5.116-5.18-7.7-7.74a4.106,4.106,0,0,0-1.152-.569,3.793,3.793,0,0,0-.375,1.116c-.017,3.56-.111,7.126.069,10.678a4.6,4.6,0,0,0,3.05,4.107c1.536.629,1.92.368,1.947-1.267.02-1.178,0-2.357,0-3.535l.4-.156q2.04,2.013,4.08,4.024c1.066,1.05,1.386,1.009,2.472-.076,1.454-1.452,2.956-2.856,4.437-4.279,0,.648-.009,1.379,0,2.111.012.786.084,1.572.055,2.356-.045,1.222.567,1.28,1.494.964A5,5,0,0,0,506.4,766.9q.078-4.442,0-8.886a14.12,14.12,0,0,0-.461-2.431,17.121,17.121,0,0,0-1.956,1.386C501.165,759.608,498.378,762.288,495.378,765.144Z" transform="translate(-313.549 -493.139)" fill="url(#radial-gradient)"/>
  </g>
</svg>
