<svg xmlns="http://www.w3.org/2000/svg" width="24.801" height="24.736" viewBox="0 0 24.801 24.736">
  <g id="p" transform="translate(-195.012 -187.252)">
    <path id="Path_1511" data-name="Path 1511" d="M219.813,199.7a12.577,12.577,0,0,1-2.879,7.764,12.156,12.156,0,0,1-9.771,4.528,11.724,11.724,0,0,1-7.45-2.687,12.156,12.156,0,0,1-4.693-10.32,11.622,11.622,0,0,1,2.678-7.04,12.133,12.133,0,0,1,10.146-4.685,11.767,11.767,0,0,1,7.4,2.835A12.581,12.581,0,0,1,219.813,199.7Zm-4.624,5.854a9.835,9.835,0,1,0-15.686-.079,9.011,9.011,0,0,1,.872-.646,16.316,16.316,0,0,1,2.12-1.178c.654-.27,1.378-.349,2.068-.558a7.663,7.663,0,0,1,2.512-.331c.541.017,1.073,0,1.614,0a1.569,1.569,0,0,1,.349.026c.7.166,1.4.323,2.1.506a7.225,7.225,0,0,1,1.3.393A7.013,7.013,0,0,1,215.189,205.55Zm-13.9,1.858c4.083,2.783,8.131,2.783,12.2,0a4.151,4.151,0,0,0-2.259-1.5c-.471-.157-.968-.262-1.457-.384a5.1,5.1,0,0,0-1.326-.3,8.43,8.43,0,0,0-2.643.14c-.733.244-1.527.314-2.268.558A3.973,3.973,0,0,0,201.292,207.409Z" transform="translate(0 0)" fill="#ff0034"/>
    <path id="Path_1512" data-name="Path 1512" d="M291.457,244.594a4.3,4.3,0,1,1-.227,8.584,4.284,4.284,0,0,1-4.135-4.5A4.222,4.222,0,0,1,291.457,244.594Zm0,6.124a2,2,0,0,0,1.893-1.841,1.9,1.9,0,0,0-3.8-.026A1.994,1.994,0,0,0,291.457,250.719Z" transform="translate(-84.049 -52.33)" fill="#ff0034"/>
  </g>
</svg>
