<svg id="account_balance_wallet_black_24dp" xmlns="http://www.w3.org/2000/svg" width="23.173" height="23.173" viewBox="0 0 23.173 23.173">
  <path id="Path_1478" data-name="Path 1478" d="M0,0H23.173V23.173H0Z" fill="none"/>
  <path id="Path_1479" data-name="Path 1479" d="M20.379,7.132v-2.2A1.937,1.937,0,0,0,18.448,3H4.931A1.931,1.931,0,0,0,3,4.931V18.448a1.931,1.931,0,0,0,1.931,1.931H18.448a1.937,1.937,0,0,0,1.931-1.931v-2.2a1.932,1.932,0,0,0,.966-1.661V8.793a1.932,1.932,0,0,0-.966-1.661Zm-.966,1.661v5.793H12.655V8.793ZM15.23,15.552s-6.759-3.379-3.379-6.759.8-1.661.8-1.661l5.793-.27H12.655a1.937,1.937,0,0,0-1.931,1.931v5.793a1.937,1.937,0,0,0,1.931,1.931h5.793Z" transform="translate(-0.103 -0.103)" fill="#ff0034"/>
  <circle id="Ellipse_2" data-name="Ellipse 2" cx="1.448" cy="1.448" r="1.448" transform="translate(14 10.138)" fill="#ff0034"/>
</svg>
