<svg xmlns="http://www.w3.org/2000/svg" width="23.659" height="17.811" viewBox="0 0 23.659 17.811">
  <path id="rkh-0۱" d="M169.181,97.868c-.526-.55-1.018-1.084-1.528-1.593-.222-.222-.2-.37.008-.583q3.412-3.388,6.808-6.776c.542-.542,1.084-1.084,1.618-1.634.172-.181.3-.222.509-.016,1.01.977,2.029,1.938,3.055,2.9.788.739,1.585,1.47,2.382,2.2.756.7,1.5,1.4,2.258,2.1.312.3.468.3.747-.016.747-.813,1.5-1.61,2.234-2.431.682-.764,1.347-1.544,2.029-2.324.082-.1.164-.2.23-.271.517.5.986.977,1.47,1.429a.321.321,0,0,1,.041.517c-.181.205-.37.4-.558.6-1.084,1.191-2.176,2.373-3.252,3.564a7.44,7.44,0,0,0-.616.8.288.288,0,0,0,.016.271c.649.616,1.306,1.232,1.963,1.84.78.723,1.569,1.445,2.357,2.16.205.189.263.345.016.575-.468.443-.9.92-1.363,1.413-.994-.92-1.938-1.807-2.883-2.686-.542-.5-1.092-1-1.659-1.495a.318.318,0,0,0-.32.008c-.567.632-1.109,1.281-1.659,1.922-.181.205-.386.386-.567.591-.361.411-.715.829-1.059,1.248-.205.246-.394.279-.641.025-1.372-1.4-2.759-2.776-4.131-4.172-.255-.255-.386-.255-.649.008-2.259,2.283-4.533,4.55-6.866,6.891-.509-.534-.986-1.068-1.495-1.569-.238-.238-.2-.4.016-.616q3.154-3.129,6.291-6.266l2.316-2.316c.624.616,1.257,1.232,1.881,1.848.871.862,1.758,1.725,2.612,2.612.255.263.411.205.608-.016.534-.6,1.076-1.191,1.6-1.8a.36.36,0,0,0-.025-.329c-1.142-1.068-2.3-2.119-3.441-3.178-.567-.534-1.117-1.092-1.684-1.626a15.567,15.567,0,0,0-1.183-1.027c-.066-.049-.3.033-.386.115-1.232,1.224-2.464,2.464-3.688,3.7C171.464,95.568,170.347,96.693,169.181,97.868Z" transform="translate(-167.497 -87.128)" fill="#fff"/>
</svg>
