<svg xmlns="http://www.w3.org/2000/svg" viewBox="0 0 322.75 242.84"><defs><style>.cls-1{fill:#fff;}</style></defs><g id="Layer_2" data-name="Layer 2"><g id="Layer_1-2" data-name="Layer 1"><path class="cls-1" d="M23,146.51C15.85,139,9.14,131.77,2.14,124.8c-3-3-2.74-5.1.17-8Q48.83,70.69,95.2,24.38q11.08-11.05,22-22.27c2.4-2.47,4-3.06,7-.21,13.73,13.36,27.71,26.47,41.69,39.57,10.75,10.08,21.65,20,32.45,30q15.42,14.31,30.76,28.7c4.31,4,6.38,4,10.25-.18,10.18-11,20.47-22,30.5-33.2,9.35-10.42,18.42-21.1,27.61-31.67,1.14-1.31,2.24-2.64,3.14-3.7,7,6.84,13.38,13.3,20,19.44,2.67,2.45,2.72,4.57.57,7-2.45,2.79-5.07,5.44-7.58,8.18C298.83,82.28,284,98.44,269.26,114.71a104.92,104.92,0,0,0-8.41,10.92,3.8,3.8,0,0,0,.19,3.65c8.82,8.46,17.76,16.78,26.73,25.07q16,14.81,32.14,29.51c2.83,2.59,3.56,4.72.25,7.87-6.35,6-12.24,12.57-18.63,19.21-13.51-12.59-26.4-24.67-39.37-36.67-7.45-6.88-15-13.71-22.61-20.34-.87-.74-3.72-.67-4.42.11-7.68,8.63-15.07,17.52-22.65,26.25-2.43,2.8-5.29,5.24-7.74,8-4.9,5.6-9.69,11.3-14.45,17-2.83,3.41-5.35,3.79-8.71.37-18.73-19-37.67-37.87-56.35-57-3.43-3.5-5.3-3.45-8.84.13-30.81,31.17-61.86,62.09-93.71,94-6.91-7.33-13.45-14.56-20.36-21.43-3.23-3.21-2.73-5.52.18-8.4q43-42.69,85.84-85.47c10.4-10.36,20.76-20.75,31.6-31.59,8.56,8.41,17.13,16.78,25.63,25.21,11.91,11.81,24,23.5,35.57,35.6,3.46,3.61,5.56,2.79,8.25-.22,7.3-8.16,14.68-16.24,21.8-24.56.72-.83.49-3.68-.35-4.47C195.28,113,179.5,98.64,163.91,84.12c-7.77-7.25-15.18-14.88-22.91-22.18-5.18-4.89-10.49-9.66-16.08-14.06-.86-.67-4.06.4-5.26,1.59C102.81,66.16,86.11,83,69.38,99.84,54.17,115.14,39,130.45,23,146.51Z"/></g></g></svg>