<svg xmlns="http://www.w3.org/2000/svg" width="160" height="20" viewBox="0 0 160 20">
  <g id="Group_1125" data-name="Group 1125" transform="translate(-102.456 -311.603)">
    <path id="Path_3" data-name="Path 3" d="M672.917,955.944c0-3.461.023-6.922-.014-10.383-.011-1.053.336-1.539,1.547-1.5,2.076.067,4.158-.029,6.236.024a6.825,6.825,0,1,1,.075,13.649c-4.055-.116-4.145,1.373-4.207,4.1-.019.852.67,2.237-1.31,2.126a2.281,2.281,0,0,1-2.392-2.419c0-1.865,0-3.729,0-5.594Zm3.669-5.061c-.07,4.243-.019,3.183,3.655,3.448a2.076,2.076,0,0,0,.422-.031,3.6,3.6,0,0,0,3.187-2.488,2.874,2.874,0,0,0-1.182-3.447,6.4,6.4,0,0,0-2.877-.887c-3.168-.264-3.272-.12-3.206,2.873C676.589,950.529,676.586,950.706,676.586,950.883Z" transform="translate(-452.454 -632.407)" fill="#fff"/>
    <path id="Path_4" data-name="Path 4" d="M262.65,946.714l9.516,13.581,9.576-13.656.288.1a9.656,9.656,0,0,1,.1.985c0,4.823.006,9.645-.015,14.468-.008,1.821-.809,2.733-2.718,2.961V955.44l-.511-.176-6.715,9.548-6.705-9.545-.486.122q0,1.018,0,2.035c0,2.256.026,4.513,0,6.769-.012,1.038-.571,1.345-1.375.67a3.184,3.184,0,0,1-1.246-1.94c-.1-5.262-.047-10.527-.035-15.79C262.321,947.066,262.422,947,262.65,946.714Z" transform="translate(-159.842 -634.254)" fill="#fff"/>
    <path id="Path_5" data-name="Path 5" d="M712.5,964.127l9.243-19.525,9.307,19.516c-2.8.584-3.638.292-4.7-1.752A2.131,2.131,0,0,0,724,961.114c-1.6.1-3.21.079-4.813.035a1.961,1.961,0,0,0-1.985,1.174C716.043,964.468,715.388,964.707,712.5,964.127Zm9.161-5.9v.053c.236,0,.471.006.706,0,1.607-.051,1.825-.384,1.157-1.78-.367-.767-.719-1.542-1.133-2.287-.135-.243-.494-.6-.659-.556a1.317,1.317,0,0,0-.768.626c-.444.875-.78,1.8-1.206,2.68-.386.8-.093,1.182.773,1.259C720.9,958.253,721.282,958.226,721.659,958.226Z" transform="translate(-480.506 -632.796)" fill="#fff"/>
    <path id="Path_6" data-name="Path 6" d="M407.155,957.792l4.346,6.442c-1.865.706-2.97.423-3.982-.985-1.055-1.468-2.07-2.961-3.118-4.433a2.95,2.95,0,0,0-3.127-.722,1.412,1.412,0,0,0-.4,1.027c-.044,1.415.012,2.834-.041,4.249-.014.385-.217,1.037-.447,1.084a1.781,1.781,0,0,1-1.413-.306,2.882,2.882,0,0,1-.839-1.722c-.068-5.179-.037-10.359-.062-15.538,0-.821.267-1.233,1.213-1.209,2.029.051,4.07-.06,6.088.1a6.276,6.276,0,0,1,5.588,3.72,5.616,5.616,0,0,1-1.122,6.447A14.791,14.791,0,0,1,407.155,957.792Zm-6.3-6.01h.01a24.812,24.812,0,0,0,.037,2.776c.036.317.479.83.763.846a16.769,16.769,0,0,0,3.935-.058,3.364,3.364,0,0,0,2.847-2.783c.507-2.628-1.2-4.334-4.5-4.407-3.817-.083-3-.2-3.089,2.7C400.849,951.164,400.857,951.473,400.857,951.782Z" transform="translate(-256.618 -633.567)" fill="#fff"/>
    <path id="Path_7" data-name="Path 7" d="M501.885,964.447c-1.92-.353-2.586-1.088-2.6-2.821-.031-3.717-.012-7.435-.012-11.152,0-1.151.051-2.3-.016-3.451-.059-1.006.273-1.425,1.428-1.419,1.138.006,1.329.492,1.309,1.39-.043,1.9.012,3.806-.024,5.708-.015.794.3,1.116,1.156,1.107q3.4-.037,6.8.008c.869.013,1.158-.324,1.143-1.111-.037-1.947.018-3.895-.028-5.841-.021-.914.34-1.259,1.322-1.255.948,0,1.352.269,1.345,1.22-.037,5-.012,10-.036,15a2.15,2.15,0,0,1-.339,1.384,8.923,8.923,0,0,1-1.759,1.169,6.388,6.388,0,0,1-.495-1.6c-.064-1.768-.05-3.54-.014-5.309.018-.837-.292-1.2-1.227-1.187q-3.329.055-6.658,0c-.955-.018-1.222.373-1.208,1.2.033,1.814.007,3.628-.006,5.443C501.962,963.389,501.917,963.859,501.885,964.447Z" transform="translate(-328.725 -633.514)" fill="#fff"/>
    <path id="Path_8" data-name="Path 8" d="M778.423,943.931c-1.189,2.118-2.207,3.95-3.245,5.773-.955,1.678-1.971,3.328-2.876,5.029a4.086,4.086,0,0,0-.4,1.785c-.047,2.04-.065,4.084,0,6.123.036,1.108-.555,1.278-1.495,1.147a2.387,2.387,0,0,1-2.09-2.337c-.058-1.507.086-3.029-.085-4.521a9.964,9.964,0,0,0-.976-3.512c-1.558-2.928-3.3-5.768-4.965-8.646a6.308,6.308,0,0,1-.3-.812c1.206,0,2.275-.066,3.326.036a1.63,1.63,0,0,1,1,.763c1.046,1.734,2.017,3.509,3.044,5.253.166.282.537.708.73.672a1.53,1.53,0,0,0,.915-.679,42.492,42.492,0,0,0,2.359-4.377,2.49,2.49,0,0,1,2.915-1.709A20.277,20.277,0,0,0,778.423,943.931Z" transform="translate(-515.968 -632.283)" fill="#fff"/>
    <path id="Path_9" data-name="Path 9" d="M562.374,946.405l8.244,18.322c-1.851.457-2.894.074-3.471-1.406a2.1,2.1,0,0,0-2.452-1.442c-1.834.092-3.68.069-5.517.01a1.755,1.755,0,0,0-1.925,1.156c-.781,1.715-1.854,2.177-3.67,1.659l8.315-18.28Zm-.021,6.321-.463.018-2.963,6.912h6.393Z" transform="translate(-367.43 -634.088)" fill="#fff"/>
    <path id="Path_10" data-name="Path 10" d="M351.972,965.137c-1.826.532-2.773.242-3.452-1.282a2.354,2.354,0,0,0-2.686-1.54,42.034,42.034,0,0,1-5.091.005,2.068,2.068,0,0,0-2.268,1.328c-.785,1.608-1.692,1.974-3.568,1.5l8.305-18.273.453,0Zm-8.3-11.991-.465.017-2.955,6.979h6.38Z" transform="translate(-211.861 -634.425)" fill="#fff"/>
    <path id="Path_11" data-name="Path 11" d="M450.824,960.554a3.654,3.654,0,0,1,3.534.564,3.515,3.515,0,0,0,4.522-.227,2.261,2.261,0,0,0-.2-3.851,14.228,14.228,0,0,0-3.092-1.258c-3.787-1.179-5.5-3.68-4.583-6.8a5.75,5.75,0,0,1,5.657-3.837,5.319,5.319,0,0,1,5.2,3.791c-1.236.713-2.268.315-3.315-.448a3.023,3.023,0,0,0-4.732.94,2.348,2.348,0,0,0,1.326,3.424c1.265.583,2.636.963,3.914,1.525,2.569,1.13,3.909,3.2,3.552,5.343-.4,2.42-2.555,4.255-5.472,4.666a6.449,6.449,0,0,1-6.109-3.075A4.538,4.538,0,0,1,450.824,960.554Z" transform="translate(-294.181 -633.186)" fill="#fff"/>
    <path id="Path_12" data-name="Path 12" d="M631.591,962.11c-.054,1.535-.8,2.368-2.219,2.4q-4.037.1-8.078-.007a1.351,1.351,0,0,1-.939-.93c-.057-5.624-.026-11.249-.05-16.873,0-.972.577-1.021,1.367-1.057.98-.045,1.337.294,1.33,1.222-.032,4.385-.012,8.769-.01,13.153,0,1.963.135,2.086,2.268,2.087Z" transform="translate(-415.033 -633.543)" fill="#fff"/>
  </g>
</svg>
