<svg xmlns="http://www.w3.org/2000/svg" width="24" height="24" viewBox="0 0 24 24">
  <g id="Group_1163" data-name="Group 1163" transform="translate(590 -1578)">
    <path id="Path_1519" data-name="Path 1519" d="M0,0H24V24H0Z" transform="translate(-590 1578)" fill="none"/>
    <g id="Ellipse_28" data-name="Ellipse 28" transform="translate(-588 1580)" fill="none" stroke="#fff" stroke-width="2">
      <circle cx="10" cy="10" r="10" stroke="none"/>
      <circle cx="10" cy="10" r="9" fill="none"/>
    </g>
    <g id="Group_1151" data-name="Group 1151" transform="translate(-586 1580.182)">
      <path id="Path_1527" data-name="Path 1527" d="M15,7.273a1.276,1.276,0,0,1-1.273,1.273A1.082,1.082,0,0,1,13.4,8.5L11.137,10.76a1.124,1.124,0,0,1,.045.331,1.273,1.273,0,1,1-2.545,0,1.124,1.124,0,0,1,.045-.331L7.058,9.137a1.251,1.251,0,0,1-.662,0l-2.9,2.9a1.082,1.082,0,0,1,.045.325,1.273,1.273,0,1,1-1.273-1.273,1.082,1.082,0,0,1,.325.045l2.9-2.9a1.124,1.124,0,0,1-.045-.331A1.273,1.273,0,1,1,8,7.909a1.124,1.124,0,0,1-.045.331L9.578,9.863a1.251,1.251,0,0,1,.662,0L12.5,7.6a1.082,1.082,0,0,1-.045-.325,1.273,1.273,0,0,1,2.545,0Zm0,0a1.276,1.276,0,0,1-1.273,1.273A1.082,1.082,0,0,1,13.4,8.5L11.137,10.76a1.124,1.124,0,0,1,.045.331,1.273,1.273,0,1,1-2.545,0,1.124,1.124,0,0,1,.045-.331L7.058,9.137a1.251,1.251,0,0,1-.662,0l-2.9,2.9a1.082,1.082,0,0,1,.045.325,1.273,1.273,0,1,1-1.273-1.273,1.082,1.082,0,0,1,.325.045l2.9-2.9a1.124,1.124,0,0,1-.045-.331A1.273,1.273,0,1,1,8,7.909a1.124,1.124,0,0,1-.045.331L9.578,9.863a1.251,1.251,0,0,1,.662,0L12.5,7.6a1.082,1.082,0,0,1-.045-.325,1.273,1.273,0,0,1,2.545,0Z" transform="translate(0 0)" fill="#fff"/>
    </g>
  </g>
</svg>
