<svg xmlns="http://www.w3.org/2000/svg" width="15" height="15" viewBox="0 0 15 15">
  <g id="check-circle.1" transform="translate(-0.287 0.446)">
    <path id="Shape" d="M7.5,15A7.5,7.5,0,0,1,2.2,2.2,7.5,7.5,0,1,1,12.8,12.8,7.451,7.451,0,0,1,7.5,15ZM3.829,6.816a.48.48,0,0,0-.342.142L2.8,7.642a.483.483,0,0,0,0,.684l3.145,3.145a.484.484,0,0,0,.684,0L12.2,5.907a.485.485,0,0,0,0-.684l-.684-.684a.484.484,0,0,0-.684,0L6.29,9.076,4.172,6.958A.481.481,0,0,0,3.829,6.816Z" transform="translate(0.287 -0.446)" fill="#ff0034"/>
  </g>
</svg>
