<svg xmlns="http://www.w3.org/2000/svg" width="24" height="24" viewBox="0 0 24 24">
  <g id="Group_1161" data-name="Group 1161" transform="translate(644 -1627)">
    <g id="Group_1156" data-name="Group 1156" transform="translate(-644 1627)">
      <rect id="Rectangle_396" data-name="Rectangle 396" width="24" height="24" fill="none"/>
    </g>
    <path id="Subtraction_3" data-name="Subtraction 3" d="M10.036,20a9.913,9.913,0,0,1-7.252-2.994A10.185,10.185,0,0,1,0,9.958a9.8,9.8,0,0,1,2.891-7A9.92,9.92,0,0,1,9.848,0l.232,0h.157a9.73,9.73,0,0,1,6.827,2.945A9.994,9.994,0,0,1,20,10a9.842,9.842,0,0,1-9.812,10ZM4.232,6.6c-.023.066-.053.133-.082.2a1.109,1.109,0,0,0-.127.425q0,.662-.01,1.324v.006c-.014,1.522-.029,3.1.049,4.639a2.58,2.58,0,0,0,1.7,2.3,1.847,1.847,0,0,0,.648.176c.315,0,.431-.232.441-.885.007-.453.005-.913,0-1.358q0-.31,0-.618l.224-.086.913.9,1.368,1.349c.274.27.472.427.671.427s.407-.165.711-.469c.566-.566,1.155-1.127,1.724-1.67.255-.243.506-.482.756-.723,0,.111,0,.226,0,.344,0,.273,0,.553,0,.835,0,.162.01.327.017.487.012.273.025.555.014.831a.716.716,0,0,0,.128.529.36.36,0,0,0,.274.1,1.4,1.4,0,0,0,.434-.091,2.811,2.811,0,0,0,1.885-2.66c.029-1.69.03-3.361,0-4.968a4.277,4.277,0,0,0-.159-.931c-.035-.14-.07-.285-.1-.428-.116.081-.237.159-.355.235a5.132,5.132,0,0,0-.739.54c-1.19,1.112-2.357,2.226-3.593,3.405L9.813,11.929l-.135-.149c-.139-.154-.312-.346-.495-.531l-.4-.4C7.508,9.554,6.188,8.219,4.876,6.921a1.212,1.212,0,0,0-.429-.23c-.072-.027-.147-.056-.215-.088Z" transform="translate(-642 1629)" fill="#fff"/>
  </g>
</svg>
