<?xml version="1.0" encoding="utf-8"?>
<!-- Generator: Adobe Illustrator 26.0.1, SVG Export Plug-In . SVG Version: 6.00 Build 0)  -->
<svg version="1.1" id="Layer_1" xmlns="http://www.w3.org/2000/svg" xmlns:xlink="http://www.w3.org/1999/xlink" x="0px" y="0px"
	 viewBox="0 0 45.5 32.2" style="enable-background:new 0 0 45.5 32.2;" xml:space="preserve">
<style type="text/css">
	.st0{fill:none;stroke:#FFFFFF;stroke-width:2.5;stroke-miterlimit:10;}
	.st1{fill:none;stroke:#FFFFFF;stroke-miterlimit:10;}
	.st2{fill:none;stroke:#FFFFFF;stroke-width:0.75;stroke-miterlimit:10;}
	.st3{fill:none;stroke:#FFFFFF;stroke-width:0.75;}
	.st4{fill:#F9F9F9;}
	.st5{fill:#FFFFFF;}
</style>
<path id="Rectangle_396" class="st0" d="M5.6,2.4h19.6c2.2,0,4,1.7,4,4v19.8c0,2.2-1.7,4-4,4H5.6c-2.2,0-4-1.7-4-4V6.4
	C1.7,4.3,3.5,2.4,5.6,2.4z"/>
<circle id="Ellipse_34" class="st1" cx="15.6" cy="16.1" r="10.3"/>
<circle id="Ellipse_35" class="st1" cx="15.6" cy="16.1" r="6.7"/>
<circle id="Ellipse_36" class="st1" cx="15.6" cy="16.5" r="2.9"/>
<line id="Line_14" class="st2" x1="23" y1="8.9" x2="8.6" y2="23.5"/>
<line id="Line_15" class="st2" x1="8.2" y1="8.8" x2="23" y2="23.6"/>
<path id="Path_1515" class="st3" d="M38.5,10.5c3.2,0,5.8,2.6,5.8,5.8s-2.6,5.8-5.8,5.8c-3.2,0-5.8-2.6-5.8-5.8l0,0
	C32.7,13.1,35.3,10.5,38.5,10.5z"/>
<path id="Path_1514" class="st4" d="M38.9,19.8v-0.9h-0.4v0.9h-0.9v-0.9h-1.3V18h0.4v-3.6h-0.4v-0.9h1.3v-0.9h0.8v0.8h0.4v-0.8h0.9
	c0,0.3,0,0.5,0,0.7s0,0.1,0.1,0.3c0.9,0.1,1.4,1.1,1.2,2c-0.1,0.3-0.3,0.5-0.4,0.8c0.4,0.4,0.5,0.9,0.4,1.4
	c-0.1,0.5-0.5,1.1-1.1,1.2c-0.3,0-0.3,0.1-0.3,0.4c0,0.3,0,0.4,0,0.7L38.9,19.8z M37.6,15.7c0.7,0,1.3,0,2,0c0.4,0,0.7-0.3,0.7-0.7
	c0-0.4-0.4-0.7-0.7-0.7c-0.5,0-1.2,0-1.7,0c-0.1,0-0.1,0-0.3,0V15.7z M37.6,18h1.6c0.1,0,0.3,0,0.5,0c0.4,0,0.7-0.3,0.7-0.7
	s-0.3-0.7-0.7-0.7c-0.1,0-0.3,0-0.4,0h-1.6L37.6,18z"/>
<rect x="37.7" y="8.2" transform="matrix(-1.836970e-16 1 -1 -1.836970e-16 47.2305 -29.3521)" class="st5" width="1.2" height="1.4"/>
<rect x="29.5" y="6.3" class="st5" width="9.5" height="1.4"/>
<rect x="37.7" y="23" transform="matrix(6.123234e-17 -1 1 6.123234e-17 14.6102 61.9723)" class="st5" width="1.2" height="1.4"/>
<rect x="29.5" y="24.9" class="st5" width="9.2" height="1.4"/>
</svg>
