<svg id="Layer_1" data-name="Layer 1" xmlns="http://www.w3.org/2000/svg" viewBox="0 0 353.83 225.38"><defs><style>.cls-1,.cls-2,.cls-4{fill:none;}.cls-1,.cls-2,.cls-3,.cls-4{stroke:#fff;stroke-miterlimit:10;}.cls-1{stroke-width:10px;}.cls-2,.cls-3{stroke-width:6px;}.cls-3,.cls-5{fill:#fff;}.cls-4{stroke-width:2px;}</style></defs><rect class="cls-1" x="5" y="5" width="214.57" height="215.38" rx="12"/><circle class="cls-2" cx="112.33" cy="111.79" r="79.19"/><circle class="cls-2" cx="112.33" cy="111.79" r="64.93"/><circle class="cls-2" cx="112.33" cy="111.79" r="47.03"/><circle class="cls-2" cx="112.33" cy="111.79" r="31.23"/><circle class="cls-2" cx="112.33" cy="111.79" r="13.29"/><line class="cls-3" x1="169.65" y1="57.16" x2="57.79" y2="169.02"/><line class="cls-3" x1="56.35" y1="55.78" x2="168.22" y2="167.89"/><circle class="cls-4" cx="28.98" cy="28.88" r="11.64"/><line class="cls-4" x1="37.52" y1="20.97" x2="20.53" y2="36.88"/><line class="cls-4" x1="20.45" y1="20.97" x2="37.52" y2="36.79"/><circle class="cls-4" cx="196.39" cy="29.12" r="11.64"/><line class="cls-4" x1="204.92" y1="21.21" x2="187.94" y2="37.12"/><line class="cls-4" x1="187.86" y1="21.21" x2="204.92" y2="37.03"/><circle class="cls-4" cx="196.39" cy="196.76" r="11.64"/><line class="cls-4" x1="204.92" y1="188.86" x2="187.94" y2="204.76"/><line class="cls-4" x1="187.86" y1="188.86" x2="204.92" y2="204.67"/><circle class="cls-4" cx="29.02" cy="196.76" r="11.64"/><line class="cls-4" x1="37.56" y1="188.86" x2="20.57" y2="204.76"/><line class="cls-4" x1="20.49" y1="188.86" x2="37.56" y2="204.67"/><path class="cls-5" d="M231.17,53.48h12.12a4.9,4.9,0,0,1,4.9,4.9V165a6.5,6.5,0,0,1-6.5,6.5H231.17a1.34,1.34,0,0,1-1.34-1.34V54.81a1.34,1.34,0,0,1,1.34-1.34Z"/><rect class="cls-5" x="213.93" y="8.91" width="18.58" height="8.57" rx="2.15"/><rect class="cls-5" x="242.62" y="8.91" width="18.58" height="8.57" rx="2.15"/><rect class="cls-5" x="272.56" y="8.91" width="18.58" height="8.57" rx="2.15"/><rect class="cls-5" x="213.93" y="206.83" width="18.58" height="8.57" rx="2.15"/><rect class="cls-5" x="242.62" y="206.83" width="18.58" height="8.57" rx="2.15"/><rect class="cls-5" x="272.56" y="206.83" width="18.58" height="8.57" rx="2.15"/><rect class="cls-5" x="354.37" y="87.86" width="18.58" height="8.57" rx="2.15" transform="translate(397.88 -346.18) rotate(90)"/><rect class="cls-5" x="354.37" y="114.58" width="18.58" height="8.57" rx="2.15" transform="translate(424.59 -319.47) rotate(90)"/><rect class="cls-5" x="354.37" y="249.79" width="18.58" height="8.57" rx="2.15" transform="translate(559.8 -184.25) rotate(90)"/><rect class="cls-5" x="354.37" y="276.5" width="18.58" height="8.57" rx="2.15" transform="translate(586.51 -157.54) rotate(90)"/><circle class="cls-2" cx="305.73" cy="112.47" r="45.1"/><path class="cls-5" d="M366.57,221.21v-8.14h-3.93v8.18h-8.8V213H341v-8.8l3.87-.35v-33.6l-3.87-.34v-8.7h12.7v-8.43h8.82v8.11h3.92v-8h9c0,2.28-.09,4.57.06,6.85a2.56,2.56,0,0,0,1.19,1.93c12.15,4.76,15.13,14.76,7.36,25.42,3.42,4,5.16,8.63,3.86,14a14.32,14.32,0,0,1-10.27,11c-1.91.58-2.34,1.4-2.23,3.15.13,1.94,0,3.9,0,6ZM354,182.53c6.39,0,12.54.06,18.68,0,3.89,0,6.72-2.78,6.73-6.22s-2.83-6.16-6.71-6.23c-5.46-.11-10.92-.09-16.37-.1-.77,0-1.53.11-2.33.17Zm.07,21.52h14.52c1.52,0,3,0,4.56-.1a6.23,6.23,0,1,0-.11-12.46c-1.16-.08-2.33-.09-3.49-.09-5.15,0-10.3,0-15.48,0Z" transform="translate(-57.93 -74.67)"/></svg>