<svg xmlns="http://www.w3.org/2000/svg" width="25.371" height="23.97" viewBox="0 0 25.371 23.97">
  <g id="kife_pol" data-name="kife pol" transform="translate(-243.696 -195.7)">
    <path id="Path_1509" data-name="Path 1509" d="M243.708,207.688c0-3.212-.018-6.418.012-9.629a2.318,2.318,0,0,1,1.09-1.89,2.8,2.8,0,0,1,1.713-.468c6.263.012,12.521,0,18.785.018a2.284,2.284,0,0,1,1.867,1.061,2.766,2.766,0,0,1,.492,1.8c-.03.859-.018,1.718,0,2.578a.469.469,0,0,0,.178.344,2.23,2.23,0,0,1,1.108,1.8c.065,1.126.089,2.258.1,3.389.018,1.481.024,2.963-.006,4.444a5.388,5.388,0,0,1-.231,1.541,2.087,2.087,0,0,1-.948,1.179.361.361,0,0,0-.219.356c.012,1.037.03,2.074-.006,3.111a2.348,2.348,0,0,1-1.025,1.831,2.874,2.874,0,0,1-1.819.516c-6.24-.018-12.48-.006-18.725-.018a2.29,2.29,0,0,1-1.914-1.1,2.757,2.757,0,0,1-.462-1.713C243.714,213.791,243.708,210.74,243.708,207.688Zm2.643-9.345v18.684h18.672v-2.7h-.338c-2.459,0-4.918-.012-7.378.006a2.891,2.891,0,0,1-1.855-.48,2.3,2.3,0,0,1-1.061-1.831c-.036-2.684-.006-5.375-.024-8.059a2.886,2.886,0,0,1,.486-1.855,2.3,2.3,0,0,1,1.8-1.055c2.678-.036,5.351-.012,8.029-.012h.338v-2.7Zm10.66,13.345h9.315v-8.006h-9.315C257.011,206.36,257.011,209.021,257.011,211.688Z" transform="translate(0)" fill="#fff"/>
    <path id="Path_1510" data-name="Path 1510" d="M505.941,365.927a2.021,2.021,0,1,1-2.009-2.027A2.092,2.092,0,0,1,505.941,365.927Z" transform="translate(-242.904 -158.233)" fill="#fff"/>
  </g>
</svg>
