<svg xmlns="http://www.w3.org/2000/svg" viewBox="0 0 263.35 248.81"><defs><style>.cls-1{fill:#fff;}</style></defs><g id="Layer_2" data-name="Layer 2"><g id="Layer_1-2" data-name="Layer 1"><path class="cls-1" d="M.06,124.39c0-33.32-.15-66.64.11-99.95C.24,16.13,4.65,9.72,11.52,4.84,17,1,22.82,0,29.31,0c65,.11,130,0,195,.17,8.13,0,14.56,4.4,19.37,11,4.07,5.6,5.37,11.8,5.11,18.67-.33,8.91-.15,17.84,0,26.75a5,5,0,0,0,1.86,3.58c6.84,4.45,11.06,10.6,11.52,18.71.65,11.71.91,23.44,1,35.17.17,15.38.24,30.76-.06,46.13a55.62,55.62,0,0,1-2.39,16,21.27,21.27,0,0,1-9.84,12.22,3.77,3.77,0,0,0-2.27,3.72c.11,10.77.32,21.54,0,32.29-.26,8-4.38,14.29-10.63,19-5.53,4.19-11.89,5.37-18.9,5.35-64.79-.18-129.58,0-194.37-.19-8.46,0-14.93-4.42-19.9-11.43C.94,231.72,0,225.89,0,219.42.13,187.74.06,156.07.06,124.39Zm27.43-97v194H221.33v-28h-3.52c-25.53,0-51.06-.11-76.59.07-7,.06-13.44-.65-19.26-5-6.46-4.81-10.93-11-11-19-.35-27.89,0-55.78-.23-83.66,0-7,.75-13.47,5-19.26,4.73-6.36,10.91-10.84,18.72-10.94,27.78-.38,55.56-.15,83.35-.15h3.51V27.35ZM138.14,165.93h96.72V82.79H138.14Z"/><path class="cls-1" d="M200.72,124.47c0,11-9.94,20.95-21,20.9s-21-9.88-20.91-21.06c0-11,9.91-21,21.07-20.91C190.75,103.44,200.85,113.32,200.72,124.47Z"/></g></g></svg>