<svg xmlns="http://www.w3.org/2000/svg" viewBox="0 0 348.91 304.13"><defs><style>.cls-1{fill:#fff;}</style></defs><g id="Layer_2" data-name="Layer 2"><g id="Layer_2-2" data-name="Layer 2"><path class="cls-1" d="M12.91,136s-1-47.5,44.93-90.57C94.28,11.25,144.05-5.45,193.49,1.59,231.84,7,277,27.43,312.42,84.4l5.46-37.15,31,4.56-12.85,87.46-87.93-12.92,4.49-30.56L287.89,101a140.08,140.08,0,0,0-41-45.55c-3.63-2.56-60-41-119.78-19.35a112,112,0,0,0-19.9,9.61c-42.56,25.84-58.77,72-64.83,94.62Z"/><path class="cls-1" d="M336,168.16s1,47.5-44.93,90.57c-36.44,34.15-86.2,50.85-135.64,43.82-38.36-5.46-83.54-25.85-118.94-82.82L31,256.88,0,252.32l12.85-87.46,87.93,12.92-4.49,30.57L61,203.16a140.08,140.08,0,0,0,41,45.55c3.64,2.57,60.05,41,119.78,19.35a112,112,0,0,0,19.9-9.61c42.56-25.83,58.77-72,64.83-94.62Z"/><path class="cls-1" d="M185,142.38c-23.79-6-31.44-12.63-31.44-22.44,0-11.29,10.61-19.21,28.21-19.21,18.55,0,25.54,8.87,26.07,22h23c-.67-18-11.69-34.53-33.46-39.91v-23H166.06V82.59c-20.29,4.3-36.55,17.46-36.55,37.76,0,24.05,20,36.14,49.18,43.13,26.21,6.18,31.45,15.45,31.45,25.13,0,7.12-5.24,18.68-28.22,18.68-21.5,0-30-9.68-31.18-22H127.63c1.34,22.84,18.28,35.74,38.43,39.91V248h31.45V225.56c20.42-3.9,36.55-15.59,36.68-37.22C234.06,158.78,208.66,148.56,185,142.38Z"/></g></g></svg>