<svg xmlns="http://www.w3.org/2000/svg" width="24.801" height="24.648" viewBox="0 0 24.801 24.648">
  <g id="Group_1162" data-name="Group 1162" transform="translate(-7524.946 -1208.807)">
    <g id="borse" transform="translate(7524.946 1208.807)">
      <path id="Path_1505" data-name="Path 1505" d="M310.357,62.871h-6.772V60.58h2.709c.015-.031.039-.062.054-.093-.534-.588-1.029-1.215-1.61-1.749a8.205,8.205,0,0,0-3.088-1.889c-.635-.194-1.262-.4-1.9-.6h-.039a15.125,15.125,0,0,0-1.865-.139,13.472,13.472,0,0,0-1.9.286,6.639,6.639,0,0,0-1.416.341,21.029,21.029,0,0,0-1.958.983,9.352,9.352,0,0,0-2.454,2.159A8.312,8.312,0,0,0,288.7,62.26a11.039,11.039,0,0,0-.6,1.765,10.109,10.109,0,0,0-.17,1.811c-.008.325-.077.464-.433.449a14.751,14.751,0,0,0-1.548,0c-.294.015-.41-.1-.364-.379.1-.681.186-1.362.3-2.036a8.839,8.839,0,0,1,.325-1.44,19.77,19.77,0,0,1,.89-2.036,10.728,10.728,0,0,1,2.353-3.127,10.516,10.516,0,0,1,3.127-2.113c.751-.31,1.5-.635,2.268-.89.387-.132.836-.085,1.231-.193a10.674,10.674,0,0,1,3.019-.124,6.944,6.944,0,0,1,1.463.271,4.538,4.538,0,0,1,.728.178,18.308,18.308,0,0,1,2.152.8,14.8,14.8,0,0,1,2.067,1.246,9.74,9.74,0,0,1,1.37,1.223c.4.418.735.89,1.138,1.385V56.13h2.322C310.357,58.359,310.357,60.6,310.357,62.871Z" transform="translate(-285.572 -53.901)" fill="#fff"/>
      <path id="Path_1506" data-name="Path 1506" d="M288.514,219.521v2.933H286.2v-6.78h6.772v2.291h-2.709c-.023.031-.046.07-.07.1.55.588,1.068,1.207,1.656,1.757a8.732,8.732,0,0,0,3.073,1.889,8.105,8.105,0,0,0,2.639.611c.418,0,.836.155,1.246.124a15.47,15.47,0,0,0,1.78-.279,10.212,10.212,0,0,0,1.378-.333,9.182,9.182,0,0,0,1.517-.681,10.86,10.86,0,0,0,2.678-2.19,9.843,9.843,0,0,0,1.532-2.353,11.818,11.818,0,0,0,.6-1.494,5.1,5.1,0,0,0,.17-1.037c.062-.519.093-1.045.17-1.563a.351.351,0,0,1,.271-.224c.6-.023,1.184-.023,1.78,0,.093.008.263.17.263.263a6.522,6.522,0,0,1-.124.844,1.172,1.172,0,0,0-.015.232,4.751,4.751,0,0,1-.294,1.734c-.271.758-.464,1.556-.8,2.283a11.23,11.23,0,0,1-1.169,1.9,13.383,13.383,0,0,1-1.571,1.858,11.345,11.345,0,0,1-3.344,2.183,18.544,18.544,0,0,1-2.376.782,13.252,13.252,0,0,1-4.017.255,8.824,8.824,0,0,1-1.958-.441,9.213,9.213,0,0,1-1.44-.472c-.666-.31-1.3-.689-1.943-1.045a9.6,9.6,0,0,1-2.353-1.9A14.874,14.874,0,0,1,288.514,219.521Z" transform="translate(-286.151 -200.017)" fill="#fff"/>
    </g>
    <text id="_" data-name="$" transform="translate(7533.497 1225.705)" fill="#fff" font-size="14" font-family="IRANSans-Medium, IRANSans" font-weight="500"><tspan x="0" y="0">$</tspan></text>
  </g>
</svg>
