<svg xmlns="http://www.w3.org/2000/svg" width="24" height="24" viewBox="0 0 24 24">
  <g id="Group_1154" data-name="Group 1154" transform="translate(590 -1578)">
    <path id="Path_1519" data-name="Path 1519" d="M0,0H24V24H0Z" transform="translate(-590 1578)" fill="none"/>
    <path id="Subtraction_2" data-name="Subtraction 2" d="M10,20A10,10,0,1,1,20,10,10.011,10.011,0,0,1,10,20ZM4.272,11.091a1.273,1.273,0,1,0,1.273,1.273,1.082,1.082,0,0,0-.045-.324l2.9-2.9a1.266,1.266,0,0,0,.662,0l1.623,1.623a1.1,1.1,0,0,0-.045.33,1.273,1.273,0,0,0,2.545,0,1.124,1.124,0,0,0-.044-.33L15.4,8.5a1.06,1.06,0,0,0,.325.045,1.273,1.273,0,1,0-1.273-1.273A1.085,1.085,0,0,0,14.5,7.6L12.24,9.863a1.238,1.238,0,0,0-.661,0L9.956,8.24A1.134,1.134,0,0,0,10,7.909a1.273,1.273,0,0,0-2.545,0A1.135,1.135,0,0,0,7.5,8.24l-2.9,2.9A1.06,1.06,0,0,0,4.272,11.091Z" transform="translate(-588 1580)" fill="#fff"/>
  </g>
</svg>
