<svg xmlns="http://www.w3.org/2000/svg" width="24" height="24" viewBox="0 0 24 24">
  <g id="Group_1160" data-name="Group 1160" transform="translate(614 -1626)">
    <g id="Group_1146" data-name="Group 1146" transform="translate(-614 1626)">
      <rect id="Rectangle_396" data-name="Rectangle 396" width="24" height="24" fill="none"/>
    </g>
    <g id="Path_1533" data-name="Path 1533" transform="translate(-1092.549 880.76)" fill="none">
      <path d="M490.629,747.243a10.038,10.038,0,0,1,9.92,10,10,10,0,1,1-20-.042A9.98,9.98,0,0,1,490.629,747.243Z" stroke="none"/>
      <path d="M 490.3973388671875 749.2400512695312 C 488.375244140625 749.2400512695312 486.3559875488281 750.1034545898438 484.8573303222656 751.6089477539062 C 483.3595581054688 753.1135864257812 482.5399475097656 755.094970703125 482.5494689941406 757.1881713867188 C 482.5593566894531 759.357666015625 483.3506164550781 761.3726806640625 484.7774353027344 762.8619995117188 C 486.2678527832031 764.417724609375 488.2760925292969 765.239990234375 490.5849609375 765.239990234375 C 490.6267700195312 765.239990234375 490.6692199707031 765.23974609375 490.7110900878906 765.2391967773438 C 492.8677062988281 765.2109375 494.8478698730469 764.38134765625 496.2869262695312 762.9031982421875 C 497.7253112792969 761.4256591796875 498.5286865234375 759.40771484375 498.5490417480469 757.2210693359375 C 498.5680847167969 755.175537109375 497.708984375 753.1243286132812 496.1920776367188 751.5933837890625 C 494.7109375 750.0985717773438 492.7410278320312 749.2413940429688 490.7872619628906 749.2415771484375 C 490.7467346191406 749.2415771484375 490.7054138183594 749.241943359375 490.6647644042969 749.24267578125 L 490.6216430664062 749.243408203125 L 490.5785217285156 749.2423095703125 C 490.5178833007812 749.2407836914062 490.4578552246094 749.2400512695312 490.3973388671875 749.2400512695312 M 490.3973388671875 747.2400512695312 C 490.4747924804688 747.2400512695312 490.5516357421875 747.2410278320312 490.6292724609375 747.2429809570312 C 495.9309387207031 747.1480712890625 500.5994873046875 751.80859375 500.5489501953125 757.2396850585938 C 500.4971923828125 762.803466796875 496.3272705078125 767.165771484375 490.7373046875 767.239013671875 C 484.6722412109375 767.3192138671875 480.5743408203125 762.6480712890625 480.5494995117188 757.197265625 C 480.5237121582031 751.5389404296875 485.2728576660156 747.2400512695312 490.3973388671875 747.2400512695312 Z" stroke="none" fill="#fff"/>
    </g>
    <path id="Path_1534" data-name="Path 1534" d="M489.316,758.147c-.145-.157-.379-.427-.63-.681-1.431-1.447-2.86-2.9-4.307-4.327a2.294,2.294,0,0,0-.644-.318,2.123,2.123,0,0,0-.21.624c-.009,1.99-.062,3.984.038,5.97a2.573,2.573,0,0,0,1.7,2.3c.859.352,1.073.206,1.089-.708.011-.659,0-1.318,0-1.976l.224-.087q1.14,1.125,2.281,2.25c.6.587.775.564,1.382-.042.813-.812,1.653-1.6,2.481-2.393,0,.362,0,.771,0,1.18.007.439.047.879.031,1.317-.025.683.317.716.835.539a2.794,2.794,0,0,0,1.885-2.661q.044-2.483,0-4.968a7.9,7.9,0,0,0-.258-1.359,9.581,9.581,0,0,0-1.094.775C492.552,755.052,490.994,756.551,489.316,758.147Z" transform="translate(-1091.504 881.782)" fill="#fff"/>
  </g>
</svg>
